<svg xmlns="http://www.w3.org/2000/svg" width="960" height="600" style="margin-top: 20px" viewBox="347.630615234375, 197.424072265625, 291.63134765625, 221.72344970703125"><g class="container"><g class="links"><line stroke="rgba(0, 0, 0, 0.2)" stroke-width="2.261335084333227" x1="483.70843605225406" y1="262.44883848996517" x2="502.17760795231266" y2="269.9455173443663"></line><line stroke="rgba(0, 0, 0, 0.2)" stroke-width="1.8463723646899908" x1="483.70843605225406" y1="262.44883848996517" x2="520.6015881069588" y2="265.7301649712791"></line><line stroke="rgba(0, 0, 0, 0.2)" stroke-width="1.1918282365569906" x1="483.70843605225406" y1="262.44883848996517" x2="499.5689153441215" y2="299.7472148761679"></line><line stroke="rgba(0, 0, 0, 0.2)" stroke-width="0.7537783614444091" x1="483.70843605225406" y1="262.44883848996517" x2="515.7593352155528" y2="236.35254419732618"></line><line stroke="rgba(0, 0, 0, 0.2)" stroke-width="2.442521052295986" x1="483.70843605225406" y1="262.44883848996517" x2="474.76067471401024" y2="281.735475716121"></line><line stroke="rgba(0, 0, 0, 0.2)" stroke-width="1.3055824196677337" x1="483.70843605225406" y1="262.44883848996517" x2="503.3156751916549" y2="247.90204974027736"></line><line stroke="rgba(0, 0, 0, 0.2)" stroke-width="1.1918282365569906" x1="483.70843605225406" y1="262.44883848996517" x2="482.0535869048821" y2="292.3628465098442"></line><line stroke="rgba(0, 0, 0, 0.2)" stroke-width="1.1918282365569906" x1="483.70843605225406" y1="262.44883848996517" x2="509.61387498025346" y2="287.2785997706278"></line><line stroke="rgba(0, 0, 0, 0.2)" stroke-width="0.533001790889026" x1="483.70843605225406" y1="262.44883848996517" x2="528.1202929095731" y2="283.7559304503964"></line><line stroke="rgba(0, 0, 0, 0.2)" stroke-width="1.3055824196677337" x1="483.70843605225406" y1="262.44883848996517" x2="449.4238126263269" y2="279.05208552499886"></line><line stroke="rgba(0, 0, 0, 0.2)" stroke-width="0.533001790889026" x1="483.70843605225406" y1="262.44883848996517" x2="523.4260188452866" y2="201.48656623499588"></line><line stroke="rgba(0, 0, 0, 0.2)" stroke-width="1.3055824196677337" x1="483.70843605225406" y1="262.44883848996517" x2="454.38693601565353" y2="313.0344272118512"></line><line stroke="rgba(0, 0, 0, 0.2)" stroke-width="0.533001790889026" x1="483.70843605225406" y1="262.44883848996517" x2="565.7592831823565" y2="273.10054656067905"></line><line stroke="rgba(0, 0, 0, 0.2)" stroke-width="0.9231861823449954" x1="483.70843605225406" y1="262.44883848996517" x2="420.5213557340129" y2="253.69763446268973"></line><line stroke="rgba(0, 0, 0, 0.2)" stroke-width="0.533001790889026" x1="483.70843605225406" y1="262.44883848996517" x2="482.82652460090395" y2="219.3841927402879"></line><line stroke="rgba(0, 0, 0, 0.2)" stroke-width="1.3055824196677337" x1="524.7026729528783" y1="309.74975384188616" x2="483.70843605225406" y2="262.44883848996517"></line><line stroke="rgba(0, 0, 0, 0.2)" stroke-width="1.066003581778052" x1="524.7026729528783" y1="309.74975384188616" x2="499.5689153441215" y2="299.7472148761679"></line><line stroke="rgba(0, 0, 0, 0.2)" stroke-width="0.533001790889026" x1="524.7026729528783" y1="309.74975384188616" x2="502.17760795231266" y2="269.9455173443663"></line><line stroke="rgba(0, 0, 0, 0.2)" stroke-width="0.533001790889026" x1="524.7026729528783" y1="309.74975384188616" x2="520.6015881069588" y2="265.7301649712791"></line><line stroke="rgba(0, 0, 0, 0.2)" stroke-width="0.533001790889026" x1="524.7026729528783" y1="309.74975384188616" x2="507.92204038382755" y2="348.16675173306174"></line><line stroke="rgba(0, 0, 0, 0.2)" stroke-width="1.4101901870444156" x1="524.7026729528783" y1="309.74975384188616" x2="540.3652714460351" y2="285.61559165211276"></line><line stroke="rgba(0, 0, 0, 0.2)" stroke-width="1.066003581778052" x1="524.7026729528783" y1="309.74975384188616" x2="474.76067471401024" y2="281.735475716121"></line><line stroke="rgba(0, 0, 0, 0.2)" stroke-width="0.533001790889026" x1="524.7026729528783" y1="309.74975384188616" x2="503.3156751916549" y2="247.90204974027736"></line><line stroke="rgba(0, 0, 0, 0.2)" stroke-width="0.533001790889026" x1="524.7026729528783" y1="309.74975384188616" x2="482.0535869048821" y2="292.3628465098442"></line><line stroke="rgba(0, 0, 0, 0.2)" stroke-width="1.3055824196677337" x1="524.7026729528783" y1="309.74975384188616" x2="586.1190076518225" y2="340.2087444378681"></line><line stroke="rgba(0, 0, 0, 0.2)" stroke-width="0.7537783614444091" x1="524.7026729528783" y1="309.74975384188616" x2="479.4555981760626" y2="348.8670155220103"></line><line stroke="rgba(0, 0, 0, 0.2)" stroke-width="2.5" x1="456.116438675018" y1="296.63462270000633" x2="483.70843605225406" y2="262.44883848996517"></line><line stroke="rgba(0, 0, 0, 0.2)" stroke-width="1.066003581778052" x1="456.116438675018" y1="296.63462270000633" x2="502.17760795231266" y2="269.9455173443663"></line><line stroke="rgba(0, 0, 0, 0.2)" stroke-width="0.533001790889026" x1="456.116438675018" y1="296.63462270000633" x2="499.5689153441215" y2="299.7472148761679"></line><line stroke="rgba(0, 0, 0, 0.2)" stroke-width="0.7537783614444091" x1="456.116438675018" y1="296.63462270000633" x2="459.06418581706566" y2="332.4759233503538"></line><line stroke="rgba(0, 0, 0, 0.2)" stroke-width="0.7537783614444091" x1="456.116438675018" y1="296.63462270000633" x2="440.01198005084245" y2="340.53619664586165"></line><line stroke="rgba(0, 0, 0, 0.2)" stroke-width="1.066003581778052" x1="456.116438675018" y1="296.63462270000633" x2="420.46151460744295" y2="297.879055331254"></line><line stroke="rgba(0, 0, 0, 0.2)" stroke-width="1.4101901870444156" x1="456.116438675018" y1="296.63462270000633" x2="474.76067471401024" y2="281.735475716121"></line><line stroke="rgba(0, 0, 0, 0.2)" stroke-width="0.533001790889026" x1="456.116438675018" y1="296.63462270000633" x2="446.2236890462531" y2="249.69919545146064"></line><line stroke="rgba(0, 0, 0, 0.2)" stroke-width="0.9231861823449954" x1="456.116438675018" y1="296.63462270000633" x2="503.3156751916549" y2="247.90204974027736"></line><line stroke="rgba(0, 0, 0, 0.2)" stroke-width="1.6854996561581053" x1="456.116438675018" y1="296.63462270000633" x2="420.5213557340129" y2="253.69763446268973"></line><line stroke="rgba(0, 0, 0, 0.2)" stroke-width="0.533001790889026" x1="456.116438675018" y1="296.63462270000633" x2="482.0535869048821" y2="292.3628465098442"></line><line stroke="rgba(0, 0, 0, 0.2)" stroke-width="1.1918282365569906" x1="456.116438675018" y1="296.63462270000633" x2="511.34857436379104" y2="312.24370605564053"></line><line stroke="rgba(0, 0, 0, 0.2)" stroke-width="0.533001790889026" x1="456.116438675018" y1="296.63462270000633" x2="421.66131107279995" y2="354.943846666377"></line><line stroke="rgba(0, 0, 0, 0.2)" stroke-width="0.7537783614444091" x1="456.116438675018" y1="296.63462270000633" x2="424.35783331533133" y2="326.642288826686"></line><line stroke="rgba(0, 0, 0, 0.2)" stroke-width="0.7537783614444091" x1="456.116438675018" y1="296.63462270000633" x2="483.484006015139" y2="361.7306132433389"></line><line stroke="rgba(0, 0, 0, 0.2)" stroke-width="0.7537783614444091" x1="456.116438675018" y1="296.63462270000633" x2="479.4555981760626" y2="348.8670155220103"></line><line stroke="rgba(0, 0, 0, 0.2)" stroke-width="0.533001790889026" x1="456.116438675018" y1="296.63462270000633" x2="454.8922884890611" y2="360.88947259824363"></line><line stroke="rgba(0, 0, 0, 0.2)" stroke-width="0.533001790889026" x1="456.116438675018" y1="296.63462270000633" x2="402.54697724617256" y2="269.76417234242086"></line><line stroke="rgba(0, 0, 0, 0.2)" stroke-width="0.533001790889026" x1="482.16892449658695" y1="310.92420206656806" x2="483.70843605225406" y2="262.44883848996517"></line><line stroke="rgba(0, 0, 0, 0.2)" stroke-width="0.533001790889026" x1="482.16892449658695" y1="310.92420206656806" x2="502.17760795231266" y2="269.9455173443663"></line><line stroke="rgba(0, 0, 0, 0.2)" stroke-width="0.533001790889026" x1="482.16892449658695" y1="310.92420206656806" x2="520.6015881069588" y2="265.7301649712791"></line><line stroke="rgba(0, 0, 0, 0.2)" stroke-width="0.533001790889026" x1="482.16892449658695" y1="310.92420206656806" x2="499.5689153441215" y2="299.7472148761679"></line><line stroke="rgba(0, 0, 0, 0.2)" stroke-width="0.533001790889026" x1="482.16892449658695" y1="310.92420206656806" x2="509.61387498025346" y2="287.2785997706278"></line><line stroke="rgba(0, 0, 0, 0.2)" stroke-width="0.533001790889026" x1="482.16892449658695" y1="310.92420206656806" x2="524.7026729528783" y2="309.74975384188616"></line><line stroke="rgba(0, 0, 0, 0.2)" stroke-width="0.533001790889026" x1="482.16892449658695" y1="310.92420206656806" x2="528.1202929095731" y2="283.7559304503964"></line><line stroke="rgba(0, 0, 0, 0.2)" stroke-width="0.533001790889026" x1="482.16892449658695" y1="310.92420206656806" x2="456.116438675018" y2="296.63462270000633"></line><line stroke="rgba(0, 0, 0, 0.2)" stroke-width="0.533001790889026" x1="482.16892449658695" y1="310.92420206656806" x2="459.06418581706566" y2="332.4759233503538"></line><line stroke="rgba(0, 0, 0, 0.2)" stroke-width="0.533001790889026" x1="482.16892449658695" y1="310.92420206656806" x2="440.01198005084245" y2="340.53619664586165"></line><line stroke="rgba(0, 0, 0, 0.2)" stroke-width="0.533001790889026" x1="482.16892449658695" y1="310.92420206656806" x2="421.66131107279995" y2="354.943846666377"></line><line stroke="rgba(0, 0, 0, 0.2)" stroke-width="0.533001790889026" x1="482.16892449658695" y1="310.92420206656806" x2="424.35783331533133" y2="326.642288826686"></line><line stroke="rgba(0, 0, 0, 0.2)" stroke-width="0.533001790889026" x1="482.16892449658695" y1="310.92420206656806" x2="420.46151460744295" y2="297.879055331254"></line><line stroke="rgba(0, 0, 0, 0.2)" stroke-width="0.533001790889026" x1="482.16892449658695" y1="310.92420206656806" x2="507.92204038382755" y2="348.16675173306174"></line><line stroke="rgba(0, 0, 0, 0.2)" stroke-width="0.533001790889026" x1="482.16892449658695" y1="310.92420206656806" x2="483.484006015139" y2="361.7306132433389"></line><line stroke="rgba(0, 0, 0, 0.2)" stroke-width="0.533001790889026" x1="482.16892449658695" y1="310.92420206656806" x2="515.7593352155528" y2="236.35254419732618"></line><line stroke="rgba(0, 0, 0, 0.2)" stroke-width="0.533001790889026" x1="482.16892449658695" y1="310.92420206656806" x2="546.8910843470328" y2="264.36726908419985"></line><line stroke="rgba(0, 0, 0, 0.2)" stroke-width="0.533001790889026" x1="482.16892449658695" y1="310.92420206656806" x2="489.0341233607989" y2="241.76588962678989"></line><line stroke="rgba(0, 0, 0, 0.2)" stroke-width="0.7537783614444091" x1="482.16892449658695" y1="310.92420206656806" x2="540.3652714460351" y2="285.61559165211276"></line><line stroke="rgba(0, 0, 0, 0.2)" stroke-width="0.9231861823449954" x1="482.16892449658695" y1="310.92420206656806" x2="474.76067471401024" y2="281.735475716121"></line><line stroke="rgba(0, 0, 0, 0.2)" stroke-width="0.533001790889026" x1="482.16892449658695" y1="310.92420206656806" x2="428.8380613510711" y2="291.5723664848918"></line><line stroke="rgba(0, 0, 0, 0.2)" stroke-width="0.533001790889026" x1="482.16892449658695" y1="310.92420206656806" x2="479.4555981760626" y2="348.8670155220103"></line><line stroke="rgba(0, 0, 0, 0.2)" stroke-width="0.533001790889026" x1="482.16892449658695" y1="310.92420206656806" x2="454.8922884890611" y2="360.88947259824363"></line><line stroke="rgba(0, 0, 0, 0.2)" stroke-width="1.3055824196677337" x1="482.16892449658695" y1="310.92420206656806" x2="482.0535869048821" y2="292.3628465098442"></line><line stroke="rgba(0, 0, 0, 0.2)" stroke-width="0.533001790889026" x1="482.16892449658695" y1="310.92420206656806" x2="449.4238126263269" y2="279.05208552499886"></line><line stroke="rgba(0, 0, 0, 0.2)" stroke-width="0.533001790889026" x1="482.16892449658695" y1="310.92420206656806" x2="458.91087296876907" y2="235.7377197170047"></line><line stroke="rgba(0, 0, 0, 0.2)" stroke-width="0.533001790889026" x1="482.16892449658695" y1="310.92420206656806" x2="476.6873391933397" y2="417.1475343893489"></line><line stroke="rgba(0, 0, 0, 0.2)" stroke-width="0.533001790889026" x1="482.16892449658695" y1="310.92420206656806" x2="405.99312013202723" y2="364.98334974242005"></line><line stroke="rgba(0, 0, 0, 0.2)" stroke-width="0.533001790889026" x1="482.16892449658695" y1="310.92420206656806" x2="454.38693601565353" y2="313.0344272118512"></line><line stroke="rgba(0, 0, 0, 0.2)" stroke-width="0.533001790889026" x1="482.16892449658695" y1="310.92420206656806" x2="446.2236890462531" y2="249.69919545146064"></line><line stroke="rgba(0, 0, 0, 0.2)" stroke-width="0.533001790889026" x1="482.16892449658695" y1="310.92420206656806" x2="503.3156751916549" y2="247.90204974027736"></line><line stroke="rgba(0, 0, 0, 0.2)" stroke-width="0.533001790889026" x1="482.16892449658695" y1="310.92420206656806" x2="565.7592831823565" y2="273.10054656067905"></line><line stroke="rgba(0, 0, 0, 0.2)" stroke-width="1.1918282365569906" x1="434.7891962878875" y1="272.10039830983" x2="483.70843605225406" y2="262.44883848996517"></line><line stroke="rgba(0, 0, 0, 0.2)" stroke-width="0.7537783614444091" x1="434.7891962878875" y1="272.10039830983" x2="474.76067471401024" y2="281.735475716121"></line><line stroke="rgba(0, 0, 0, 0.2)" stroke-width="0.533001790889026" x1="434.7891962878875" y1="272.10039830983" x2="456.116438675018" y2="296.63462270000633"></line><line stroke="rgba(0, 0, 0, 0.2)" stroke-width="0.533001790889026" x1="434.7891962878875" y1="272.10039830983" x2="424.35783331533133" y2="326.642288826686"></line><line stroke="rgba(0, 0, 0, 0.2)" stroke-width="0.533001790889026" x1="434.7891962878875" y1="272.10039830983" x2="483.484006015139" y2="361.7306132433389"></line><line stroke="rgba(0, 0, 0, 0.2)" stroke-width="0.9231861823449954" x1="434.7891962878875" y1="272.10039830983" x2="420.5213557340129" y2="253.69763446268973"></line><line stroke="rgba(0, 0, 0, 0.2)" stroke-width="0.533001790889026" x1="434.7891962878875" y1="272.10039830983" x2="482.0535869048821" y2="292.3628465098442"></line><line stroke="rgba(0, 0, 0, 0.2)" stroke-width="0.533001790889026" x1="434.7891962878875" y1="272.10039830983" x2="482.82652460090395" y2="219.3841927402879"></line><line stroke="rgba(0, 0, 0, 0.2)" stroke-width="0.533001790889026" x1="495.3049210140603" y1="321.77312303090815" x2="483.70843605225406" y2="262.44883848996517"></line><line stroke="rgba(0, 0, 0, 0.2)" stroke-width="0.533001790889026" x1="495.3049210140603" y1="321.77312303090815" x2="502.17760795231266" y2="269.9455173443663"></line><line stroke="rgba(0, 0, 0, 0.2)" stroke-width="0.533001790889026" x1="495.3049210140603" y1="321.77312303090815" x2="520.6015881069588" y2="265.7301649712791"></line><line stroke="rgba(0, 0, 0, 0.2)" stroke-width="0.533001790889026" x1="495.3049210140603" y1="321.77312303090815" x2="499.5689153441215" y2="299.7472148761679"></line><line stroke="rgba(0, 0, 0, 0.2)" stroke-width="0.7537783614444091" x1="495.3049210140603" y1="321.77312303090815" x2="509.61387498025346" y2="287.2785997706278"></line><line stroke="rgba(0, 0, 0, 0.2)" stroke-width="1.7677669529663687" x1="495.3049210140603" y1="321.77312303090815" x2="524.7026729528783" y2="309.74975384188616"></line><line stroke="rgba(0, 0, 0, 0.2)" stroke-width="0.533001790889026" x1="495.3049210140603" y1="321.77312303090815" x2="542.3795750768176" y2="304.4035324759205"></line><line stroke="rgba(0, 0, 0, 0.2)" stroke-width="0.9231861823449954" x1="495.3049210140603" y1="321.77312303090815" x2="528.1202929095731" y2="283.7559304503964"></line><line stroke="rgba(0, 0, 0, 0.2)" stroke-width="0.533001790889026" x1="495.3049210140603" y1="321.77312303090815" x2="534.9646599843397" y2="247.98210077203726"></line><line stroke="rgba(0, 0, 0, 0.2)" stroke-width="0.533001790889026" x1="495.3049210140603" y1="321.77312303090815" x2="456.116438675018" y2="296.63462270000633"></line><line stroke="rgba(0, 0, 0, 0.2)" stroke-width="0.533001790889026" x1="495.3049210140603" y1="321.77312303090815" x2="459.06418581706566" y2="332.4759233503538"></line><line stroke="rgba(0, 0, 0, 0.2)" stroke-width="0.533001790889026" x1="495.3049210140603" y1="321.77312303090815" x2="440.01198005084245" y2="340.53619664586165"></line><line stroke="rgba(0, 0, 0, 0.2)" stroke-width="0.533001790889026" x1="495.3049210140603" y1="321.77312303090815" x2="421.66131107279995" y2="354.943846666377"></line><line stroke="rgba(0, 0, 0, 0.2)" stroke-width="0.533001790889026" x1="495.3049210140603" y1="321.77312303090815" x2="424.35783331533133" y2="326.642288826686"></line><line stroke="rgba(0, 0, 0, 0.2)" stroke-width="0.533001790889026" x1="495.3049210140603" y1="321.77312303090815" x2="420.46151460744295" y2="297.879055331254"></line><line stroke="rgba(0, 0, 0, 0.2)" stroke-width="1.1918282365569906" x1="495.3049210140603" y1="321.77312303090815" x2="507.92204038382755" y2="348.16675173306174"></line><line stroke="rgba(0, 0, 0, 0.2)" stroke-width="1.1918282365569906" x1="495.3049210140603" y1="321.77312303090815" x2="483.484006015139" y2="361.7306132433389"></line><line stroke="rgba(0, 0, 0, 0.2)" stroke-width="0.533001790889026" x1="495.3049210140603" y1="321.77312303090815" x2="515.7593352155528" y2="236.35254419732618"></line><line stroke="rgba(0, 0, 0, 0.2)" stroke-width="0.7537783614444091" x1="495.3049210140603" y1="321.77312303090815" x2="546.8910843470328" y2="264.36726908419985"></line><line stroke="rgba(0, 0, 0, 0.2)" stroke-width="0.533001790889026" x1="495.3049210140603" y1="321.77312303090815" x2="489.0341233607989" y2="241.76588962678989"></line><line stroke="rgba(0, 0, 0, 0.2)" stroke-width="1.3055824196677337" x1="495.3049210140603" y1="321.77312303090815" x2="540.3652714460351" y2="285.61559165211276"></line><line stroke="rgba(0, 0, 0, 0.2)" stroke-width="0.533001790889026" x1="495.3049210140603" y1="321.77312303090815" x2="474.76067471401024" y2="281.735475716121"></line><line stroke="rgba(0, 0, 0, 0.2)" stroke-width="0.533001790889026" x1="495.3049210140603" y1="321.77312303090815" x2="428.8380613510711" y2="291.5723664848918"></line><line stroke="rgba(0, 0, 0, 0.2)" stroke-width="0.533001790889026" x1="495.3049210140603" y1="321.77312303090815" x2="479.4555981760626" y2="348.8670155220103"></line><line stroke="rgba(0, 0, 0, 0.2)" stroke-width="0.7537783614444091" x1="495.3049210140603" y1="321.77312303090815" x2="454.8922884890611" y2="360.88947259824363"></line><line stroke="rgba(0, 0, 0, 0.2)" stroke-width="0.533001790889026" x1="495.3049210140603" y1="321.77312303090815" x2="482.16892449658695" y2="310.92420206656806"></line><line stroke="rgba(0, 0, 0, 0.2)" stroke-width="0.533001790889026" x1="495.3049210140603" y1="321.77312303090815" x2="434.7891962878875" y2="272.10039830983"></line><line stroke="rgba(0, 0, 0, 0.2)" stroke-width="0.533001790889026" x1="495.3049210140603" y1="321.77312303090815" x2="449.4238126263269" y2="279.05208552499886"></line><line stroke="rgba(0, 0, 0, 0.2)" stroke-width="0.533001790889026" x1="495.3049210140603" y1="321.77312303090815" x2="456.61093939329044" y2="387.8622523381436"></line><line stroke="rgba(0, 0, 0, 0.2)" stroke-width="0.533001790889026" x1="495.3049210140603" y1="321.77312303090815" x2="454.38693601565353" y2="313.0344272118512"></line><line stroke="rgba(0, 0, 0, 0.2)" stroke-width="1.066003581778052" x1="495.3049210140603" y1="321.77312303090815" x2="469.2467995764721" y2="269.21215783590765"></line><line stroke="rgba(0, 0, 0, 0.2)" stroke-width="0.9231861823449954" x1="495.3049210140603" y1="321.77312303090815" x2="516.1435627537251" y2="394.2413198817304"></line><line stroke="rgba(0, 0, 0, 0.2)" stroke-width="0.533001790889026" x1="495.3049210140603" y1="321.77312303090815" x2="482.0535869048821" y2="292.3628465098442"></line><line stroke="rgba(0, 0, 0, 0.2)" stroke-width="0.7537783614444091" x1="495.3049210140603" y1="321.77312303090815" x2="537.9515480210716" y2="390.9444011936378"></line><line stroke="rgba(0, 0, 0, 0.2)" stroke-width="1.5990053726670783" x1="520.6015881069588" y1="265.7301649712791" x2="502.17760795231266" y2="269.9455173443663"></line><line stroke="rgba(0, 0, 0, 0.2)" stroke-width="0.9231861823449954" x1="520.6015881069588" y1="265.7301649712791" x2="489.0341233607989" y2="241.76588962678989"></line><line stroke="rgba(0, 0, 0, 0.2)" stroke-width="0.533001790889026" x1="520.6015881069588" y1="265.7301649712791" x2="509.61387498025346" y2="287.2785997706278"></line><line stroke="rgba(0, 0, 0, 0.2)" stroke-width="0.7537783614444091" x1="499.5689153441215" y1="299.7472148761679" x2="502.17760795231266" y2="269.9455173443663"></line><line stroke="rgba(0, 0, 0, 0.2)" stroke-width="0.7537783614444091" x1="499.5689153441215" y1="299.7472148761679" x2="520.6015881069588" y2="265.7301649712791"></line><line stroke="rgba(0, 0, 0, 0.2)" stroke-width="1.1918282365569906" x1="499.5689153441215" y1="299.7472148761679" x2="528.1202929095731" y2="283.7559304503964"></line><line stroke="rgba(0, 0, 0, 0.2)" stroke-width="0.533001790889026" x1="499.5689153441215" y1="299.7472148761679" x2="424.35783331533133" y2="326.642288826686"></line><line stroke="rgba(0, 0, 0, 0.2)" stroke-width="1.066003581778052" x1="499.5689153441215" y1="299.7472148761679" x2="474.76067471401024" y2="281.735475716121"></line><line stroke="rgba(0, 0, 0, 0.2)" stroke-width="0.7537783614444091" x1="499.5689153441215" y1="299.7472148761679" x2="503.3156751916549" y2="247.90204974027736"></line><line stroke="rgba(0, 0, 0, 0.2)" stroke-width="0.533001790889026" x1="499.5689153441215" y1="299.7472148761679" x2="509.61387498025346" y2="287.2785997706278"></line><line stroke="rgba(0, 0, 0, 0.2)" stroke-width="0.533001790889026" x1="499.5689153441215" y1="299.7472148761679" x2="479.4555981760626" y2="348.8670155220103"></line><line stroke="rgba(0, 0, 0, 0.2)" stroke-width="1.4101901870444156" x1="499.5689153441215" y1="299.7472148761679" x2="469.2467995764721" y2="269.21215783590765"></line><line stroke="rgba(0, 0, 0, 0.2)" stroke-width="1.3055824196677337" x1="528.1202929095731" y1="283.7559304503964" x2="502.17760795231266" y2="269.9455173443663"></line><line stroke="rgba(0, 0, 0, 0.2)" stroke-width="0.7537783614444091" x1="528.1202929095731" y1="283.7559304503964" x2="563.5476268331375" y2="213.23262761475144"></line><line stroke="rgba(0, 0, 0, 0.2)" stroke-width="0.533001790889026" x1="459.06418581706566" y1="332.4759233503538" x2="502.17760795231266" y2="269.9455173443663"></line><line stroke="rgba(0, 0, 0, 0.2)" stroke-width="1.066003581778052" x1="459.06418581706566" y1="332.4759233503538" x2="509.61387498025346" y2="287.2785997706278"></line><line stroke="rgba(0, 0, 0, 0.2)" stroke-width="0.7537783614444091" x1="459.06418581706566" y1="332.4759233503538" x2="424.35783331533133" y2="326.642288826686"></line><line stroke="rgba(0, 0, 0, 0.2)" stroke-width="0.9231861823449954" x1="459.06418581706566" y1="332.4759233503538" x2="456.61093939329044" y2="387.8622523381436"></line><line stroke="rgba(0, 0, 0, 0.2)" stroke-width="0.533001790889026" x1="502.17760795231266" y1="269.9455173443663" x2="515.7593352155528" y2="236.35254419732618"></line><line stroke="rgba(0, 0, 0, 0.2)" stroke-width="0.533001790889026" x1="546.8910843470328" y1="264.36726908419985" x2="502.17760795231266" y2="269.9455173443663"></line><line stroke="rgba(0, 0, 0, 0.2)" stroke-width="1.3055824196677337" x1="546.8910843470328" y1="264.36726908419985" x2="515.7593352155528" y2="236.35254419732618"></line><line stroke="rgba(0, 0, 0, 0.2)" stroke-width="0.7537783614444091" x1="546.8910843470328" y1="264.36726908419985" x2="523.4260188452866" y2="201.48656623499588"></line><line stroke="rgba(0, 0, 0, 0.2)" stroke-width="0.533001790889026" x1="546.8910843470328" y1="264.36726908419985" x2="503.3156751916549" y2="247.90204974027736"></line><line stroke="rgba(0, 0, 0, 0.2)" stroke-width="0.533001790889026" x1="546.8910843470328" y1="264.36726908419985" x2="482.0535869048821" y2="292.3628465098442"></line><line stroke="rgba(0, 0, 0, 0.2)" stroke-width="0.7537783614444091" x1="546.8910843470328" y1="264.36726908419985" x2="617.8557030361258" y2="284.89897316310925"></line><line stroke="rgba(0, 0, 0, 0.2)" stroke-width="0.7537783614444091" x1="474.76067471401024" y1="281.735475716121" x2="502.17760795231266" y2="269.9455173443663"></line><line stroke="rgba(0, 0, 0, 0.2)" stroke-width="1.066003581778052" x1="474.76067471401024" y1="281.735475716121" x2="520.6015881069588" y2="265.7301649712791"></line><line stroke="rgba(0, 0, 0, 0.2)" stroke-width="0.7537783614444091" x1="474.76067471401024" y1="281.735475716121" x2="509.61387498025346" y2="287.2785997706278"></line><line stroke="rgba(0, 0, 0, 0.2)" stroke-width="0.533001790889026" x1="474.76067471401024" y1="281.735475716121" x2="528.1202929095731" y2="283.7559304503964"></line><line stroke="rgba(0, 0, 0, 0.2)" stroke-width="0.7537783614444091" x1="474.76067471401024" y1="281.735475716121" x2="454.38693601565353" y2="313.0344272118512"></line><line stroke="rgba(0, 0, 0, 0.2)" stroke-width="1.6854996561581053" x1="503.3156751916549" y1="247.90204974027736" x2="502.17760795231266" y2="269.9455173443663"></line><line stroke="rgba(0, 0, 0, 0.2)" stroke-width="0.9231861823449954" x1="503.3156751916549" y1="247.90204974027736" x2="520.6015881069588" y2="265.7301649712791"></line><line stroke="rgba(0, 0, 0, 0.2)" stroke-width="0.7537783614444091" x1="503.3156751916549" y1="247.90204974027736" x2="509.61387498025346" y2="287.2785997706278"></line><line stroke="rgba(0, 0, 0, 0.2)" stroke-width="0.9231861823449954" x1="503.3156751916549" y1="247.90204974027736" x2="528.1202929095731" y2="283.7559304503964"></line><line stroke="rgba(0, 0, 0, 0.2)" stroke-width="0.533001790889026" x1="503.3156751916549" y1="247.90204974027736" x2="474.76067471401024" y2="281.735475716121"></line><line stroke="rgba(0, 0, 0, 0.2)" stroke-width="0.533001790889026" x1="503.3156751916549" y1="247.90204974027736" x2="469.2467995764721" y2="269.21215783590765"></line><line stroke="rgba(0, 0, 0, 0.2)" stroke-width="0.7537783614444091" x1="482.0535869048821" y1="292.3628465098442" x2="502.17760795231266" y2="269.9455173443663"></line><line stroke="rgba(0, 0, 0, 0.2)" stroke-width="0.7537783614444091" x1="482.0535869048821" y1="292.3628465098442" x2="520.6015881069588" y2="265.7301649712791"></line><line stroke="rgba(0, 0, 0, 0.2)" stroke-width="0.533001790889026" x1="482.0535869048821" y1="292.3628465098442" x2="499.5689153441215" y2="299.7472148761679"></line><line stroke="rgba(0, 0, 0, 0.2)" stroke-width="0.533001790889026" x1="482.0535869048821" y1="292.3628465098442" x2="509.61387498025346" y2="287.2785997706278"></line><line stroke="rgba(0, 0, 0, 0.2)" stroke-width="0.533001790889026" x1="482.0535869048821" y1="292.3628465098442" x2="528.1202929095731" y2="283.7559304503964"></line><line stroke="rgba(0, 0, 0, 0.2)" stroke-width="0.533001790889026" x1="482.0535869048821" y1="292.3628465098442" x2="459.06418581706566" y2="332.4759233503538"></line><line stroke="rgba(0, 0, 0, 0.2)" stroke-width="0.533001790889026" x1="482.0535869048821" y1="292.3628465098442" x2="421.66131107279995" y2="354.943846666377"></line><line stroke="rgba(0, 0, 0, 0.2)" stroke-width="0.533001790889026" x1="482.0535869048821" y1="292.3628465098442" x2="424.35783331533133" y2="326.642288826686"></line><line stroke="rgba(0, 0, 0, 0.2)" stroke-width="0.533001790889026" x1="482.0535869048821" y1="292.3628465098442" x2="483.484006015139" y2="361.7306132433389"></line><line stroke="rgba(0, 0, 0, 0.2)" stroke-width="0.533001790889026" x1="482.0535869048821" y1="292.3628465098442" x2="515.7593352155528" y2="236.35254419732618"></line><line stroke="rgba(0, 0, 0, 0.2)" stroke-width="0.533001790889026" x1="482.0535869048821" y1="292.3628465098442" x2="489.0341233607989" y2="241.76588962678989"></line><line stroke="rgba(0, 0, 0, 0.2)" stroke-width="0.7537783614444091" x1="482.0535869048821" y1="292.3628465098442" x2="474.76067471401024" y2="281.735475716121"></line><line stroke="rgba(0, 0, 0, 0.2)" stroke-width="0.533001790889026" x1="482.0535869048821" y1="292.3628465098442" x2="479.4555981760626" y2="348.8670155220103"></line><line stroke="rgba(0, 0, 0, 0.2)" stroke-width="0.533001790889026" x1="482.0535869048821" y1="292.3628465098442" x2="454.8922884890611" y2="360.88947259824363"></line><line stroke="rgba(0, 0, 0, 0.2)" stroke-width="0.533001790889026" x1="482.0535869048821" y1="292.3628465098442" x2="449.4238126263269" y2="279.05208552499886"></line><line stroke="rgba(0, 0, 0, 0.2)" stroke-width="0.533001790889026" x1="482.0535869048821" y1="292.3628465098442" x2="454.38693601565353" y2="313.0344272118512"></line><line stroke="rgba(0, 0, 0, 0.2)" stroke-width="0.9231861823449954" x1="482.82652460090395" y1="219.3841927402879" x2="502.17760795231266" y2="269.9455173443663"></line><line stroke="rgba(0, 0, 0, 0.2)" stroke-width="1.066003581778052" x1="482.82652460090395" y1="219.3841927402879" x2="523.4260188452866" y2="201.48656623499588"></line><line stroke="rgba(0, 0, 0, 0.2)" stroke-width="0.9231861823449954" x1="482.82652460090395" y1="219.3841927402879" x2="482.0535869048821" y2="292.3628465098442"></line><line stroke="rgba(0, 0, 0, 0.2)" stroke-width="0.533001790889026" x1="482.82652460090395" y1="219.3841927402879" x2="515.7593352155528" y2="236.35254419732618"></line><line stroke="rgba(0, 0, 0, 0.2)" stroke-width="0.7537783614444091" x1="482.82652460090395" y1="219.3841927402879" x2="474.76067471401024" y2="281.735475716121"></line><line stroke="rgba(0, 0, 0, 0.2)" stroke-width="0.7537783614444091" x1="542.3795750768176" y1="304.4035324759205" x2="509.61387498025346" y2="287.2785997706278"></line><line stroke="rgba(0, 0, 0, 0.2)" stroke-width="0.533001790889026" x1="542.3795750768176" y1="304.4035324759205" x2="483.70843605225406" y2="262.44883848996517"></line><line stroke="rgba(0, 0, 0, 0.2)" stroke-width="0.533001790889026" x1="542.3795750768176" y1="304.4035324759205" x2="499.5689153441215" y2="299.7472148761679"></line><line stroke="rgba(0, 0, 0, 0.2)" stroke-width="0.7537783614444091" x1="542.3795750768176" y1="304.4035324759205" x2="524.7026729528783" y2="309.74975384188616"></line><line stroke="rgba(0, 0, 0, 0.2)" stroke-width="0.533001790889026" x1="542.3795750768176" y1="304.4035324759205" x2="528.1202929095731" y2="283.7559304503964"></line><line stroke="rgba(0, 0, 0, 0.2)" stroke-width="0.9231861823449954" x1="542.3795750768176" y1="304.4035324759205" x2="474.76067471401024" y2="281.735475716121"></line><line stroke="rgba(0, 0, 0, 0.2)" stroke-width="0.533001790889026" x1="542.3795750768176" y1="304.4035324759205" x2="482.16892449658695" y2="310.92420206656806"></line><line stroke="rgba(0, 0, 0, 0.2)" stroke-width="0.533001790889026" x1="542.3795750768176" y1="304.4035324759205" x2="482.0535869048821" y2="292.3628465098442"></line><line stroke="rgba(0, 0, 0, 0.2)" stroke-width="0.7537783614444091" x1="542.3795750768176" y1="304.4035324759205" x2="546.8910843470328" y2="264.36726908419985"></line><line stroke="rgba(0, 0, 0, 0.2)" stroke-width="0.533001790889026" x1="542.3795750768176" y1="304.4035324759205" x2="540.3652714460351" y2="285.61559165211276"></line><line stroke="rgba(0, 0, 0, 0.2)" stroke-width="0.7537783614444091" x1="542.3795750768176" y1="304.4035324759205" x2="617.8557030361258" y2="284.89897316310925"></line><line stroke="rgba(0, 0, 0, 0.2)" stroke-width="0.533001790889026" x1="507.92204038382755" y1="348.16675173306174" x2="509.61387498025346" y2="287.2785997706278"></line><line stroke="rgba(0, 0, 0, 0.2)" stroke-width="0.533001790889026" x1="507.92204038382755" y1="348.16675173306174" x2="528.1202929095731" y2="283.7559304503964"></line><line stroke="rgba(0, 0, 0, 0.2)" stroke-width="0.533001790889026" x1="507.92204038382755" y1="348.16675173306174" x2="440.01198005084245" y2="340.53619664586165"></line><line stroke="rgba(0, 0, 0, 0.2)" stroke-width="0.533001790889026" x1="507.92204038382755" y1="348.16675173306174" x2="456.116438675018" y2="296.63462270000633"></line><line stroke="rgba(0, 0, 0, 0.2)" stroke-width="1.5990053726670783" x1="507.92204038382755" y1="348.16675173306174" x2="483.484006015139" y2="361.7306132433389"></line><line stroke="rgba(0, 0, 0, 0.2)" stroke-width="0.533001790889026" x1="507.92204038382755" y1="348.16675173306174" x2="482.0535869048821" y2="292.3628465098442"></line><line stroke="rgba(0, 0, 0, 0.2)" stroke-width="0.533001790889026" x1="507.92204038382755" y1="348.16675173306174" x2="474.76067471401024" y2="281.735475716121"></line><line stroke="rgba(0, 0, 0, 0.2)" stroke-width="0.533001790889026" x1="507.92204038382755" y1="348.16675173306174" x2="456.61093939329044" y2="387.8622523381436"></line><line stroke="rgba(0, 0, 0, 0.2)" stroke-width="0.9231861823449954" x1="507.92204038382755" y1="348.16675173306174" x2="516.1435627537251" y2="394.2413198817304"></line><line stroke="rgba(0, 0, 0, 0.2)" stroke-width="0.533001790889026" x1="507.92204038382755" y1="348.16675173306174" x2="537.9515480210716" y2="390.9444011936378"></line><line stroke="rgba(0, 0, 0, 0.2)" stroke-width="0.7537783614444091" x1="534.9646599843397" y1="247.98210077203726" x2="483.70843605225406" y2="262.44883848996517"></line><line stroke="rgba(0, 0, 0, 0.2)" stroke-width="0.533001790889026" x1="534.9646599843397" y1="247.98210077203726" x2="502.17760795231266" y2="269.9455173443663"></line><line stroke="rgba(0, 0, 0, 0.2)" stroke-width="1.066003581778052" x1="534.9646599843397" y1="247.98210077203726" x2="520.6015881069588" y2="265.7301649712791"></line><line stroke="rgba(0, 0, 0, 0.2)" stroke-width="0.533001790889026" x1="534.9646599843397" y1="247.98210077203726" x2="528.1202929095731" y2="283.7559304503964"></line><line stroke="rgba(0, 0, 0, 0.2)" stroke-width="0.533001790889026" x1="534.9646599843397" y1="247.98210077203726" x2="482.16892449658695" y2="310.92420206656806"></line><line stroke="rgba(0, 0, 0, 0.2)" stroke-width="0.7537783614444091" x1="534.9646599843397" y1="247.98210077203726" x2="503.3156751916549" y2="247.90204974027736"></line><line stroke="rgba(0, 0, 0, 0.2)" stroke-width="0.533001790889026" x1="534.9646599843397" y1="247.98210077203726" x2="482.0535869048821" y2="292.3628465098442"></line><line stroke="rgba(0, 0, 0, 0.2)" stroke-width="0.9231861823449954" x1="511.34857436379104" y1="312.24370605564053" x2="503.3156751916549" y2="247.90204974027736"></line><line stroke="rgba(0, 0, 0, 0.2)" stroke-width="0.533001790889026" x1="511.34857436379104" y1="312.24370605564053" x2="565.7592831823565" y2="273.10054656067905"></line><line stroke="rgba(0, 0, 0, 0.2)" stroke-width="0.7537783614444091" x1="511.34857436379104" y1="312.24370605564053" x2="479.4555981760626" y2="348.8670155220103"></line><line stroke="rgba(0, 0, 0, 0.2)" stroke-width="0.533001790889026" x1="440.01198005084245" y1="340.53619664586165" x2="459.06418581706566" y2="332.4759233503538"></line><line stroke="rgba(0, 0, 0, 0.2)" stroke-width="1.1918282365569906" x1="440.01198005084245" y1="340.53619664586165" x2="421.66131107279995" y2="354.943846666377"></line><line stroke="rgba(0, 0, 0, 0.2)" stroke-width="0.533001790889026" x1="440.01198005084245" y1="340.53619664586165" x2="482.0535869048821" y2="292.3628465098442"></line><line stroke="rgba(0, 0, 0, 0.2)" stroke-width="0.533001790889026" x1="440.01198005084245" y1="340.53619664586165" x2="456.61093939329044" y2="387.8622523381436"></line><line stroke="rgba(0, 0, 0, 0.2)" stroke-width="0.533001790889026" x1="420.46151460744295" y1="297.879055331254" x2="424.35783331533133" y2="326.642288826686"></line><line stroke="rgba(0, 0, 0, 0.2)" stroke-width="0.533001790889026" x1="420.46151460744295" y1="297.879055331254" x2="459.06418581706566" y2="332.4759233503538"></line><line stroke="rgba(0, 0, 0, 0.2)" stroke-width="0.7537783614444091" x1="420.46151460744295" y1="297.879055331254" x2="482.0535869048821" y2="292.3628465098442"></line><line stroke="rgba(0, 0, 0, 0.2)" stroke-width="0.533001790889026" x1="420.46151460744295" y1="297.879055331254" x2="489.0341233607989" y2="241.76588962678989"></line><line stroke="rgba(0, 0, 0, 0.2)" stroke-width="0.533001790889026" x1="420.46151460744295" y1="297.879055331254" x2="449.4238126263269" y2="279.05208552499886"></line><line stroke="rgba(0, 0, 0, 0.2)" stroke-width="0.533001790889026" x1="420.46151460744295" y1="297.879055331254" x2="420.5213557340129" y2="253.69763446268973"></line><line stroke="rgba(0, 0, 0, 0.2)" stroke-width="1.1918282365569906" x1="446.2236890462531" y1="249.69919545146064" x2="420.46151460744295" y2="297.879055331254"></line><line stroke="rgba(0, 0, 0, 0.2)" stroke-width="0.7537783614444091" x1="446.2236890462531" y1="249.69919545146064" x2="489.0341233607989" y2="241.76588962678989"></line><line stroke="rgba(0, 0, 0, 0.2)" stroke-width="1.4101901870444156" x1="446.2236890462531" y1="249.69919545146064" x2="483.70843605225406" y2="262.44883848996517"></line><line stroke="rgba(0, 0, 0, 0.2)" stroke-width="0.533001790889026" x1="446.2236890462531" y1="249.69919545146064" x2="509.61387498025346" y2="287.2785997706278"></line><line stroke="rgba(0, 0, 0, 0.2)" stroke-width="0.533001790889026" x1="446.2236890462531" y1="249.69919545146064" x2="515.7593352155528" y2="236.35254419732618"></line><line stroke="rgba(0, 0, 0, 0.2)" stroke-width="1.066003581778052" x1="446.2236890462531" y1="249.69919545146064" x2="482.0535869048821" y2="292.3628465098442"></line><line stroke="rgba(0, 0, 0, 0.2)" stroke-width="0.533001790889026" x1="446.2236890462531" y1="249.69919545146064" x2="482.82652460090395" y2="219.3841927402879"></line><line stroke="rgba(0, 0, 0, 0.2)" stroke-width="0.7537783614444091" x1="446.2236890462531" y1="249.69919545146064" x2="420.5213557340129" y2="253.69763446268973"></line><line stroke="rgba(0, 0, 0, 0.2)" stroke-width="0.7537783614444091" x1="540.3652714460351" y1="285.61559165211276" x2="489.0341233607989" y2="241.76588962678989"></line><line stroke="rgba(0, 0, 0, 0.2)" stroke-width="0.533001790889026" x1="540.3652714460351" y1="285.61559165211276" x2="509.61387498025346" y2="287.2785997706278"></line><line stroke="rgba(0, 0, 0, 0.2)" stroke-width="0.7537783614444091" x1="540.3652714460351" y1="285.61559165211276" x2="482.0535869048821" y2="292.3628465098442"></line><line stroke="rgba(0, 0, 0, 0.2)" stroke-width="0.533001790889026" x1="540.3652714460351" y1="285.61559165211276" x2="523.4260188452866" y2="201.48656623499588"></line><line stroke="rgba(0, 0, 0, 0.2)" stroke-width="0.533001790889026" x1="458.91087296876907" y1="235.7377197170047" x2="489.0341233607989" y2="241.76588962678989"></line><line stroke="rgba(0, 0, 0, 0.2)" stroke-width="0.533001790889026" x1="458.91087296876907" y1="235.7377197170047" x2="540.3652714460351" y2="285.61559165211276"></line><line stroke="rgba(0, 0, 0, 0.2)" stroke-width="0.9231861823449954" x1="458.91087296876907" y1="235.7377197170047" x2="474.76067471401024" y2="281.735475716121"></line><line stroke="rgba(0, 0, 0, 0.2)" stroke-width="1.3055824196677337" x1="458.91087296876907" y1="235.7377197170047" x2="449.4238126263269" y2="279.05208552499886"></line><line stroke="rgba(0, 0, 0, 0.2)" stroke-width="0.533001790889026" x1="458.91087296876907" y1="235.7377197170047" x2="523.4260188452866" y2="201.48656623499588"></line><line stroke="rgba(0, 0, 0, 0.2)" stroke-width="0.533001790889026" x1="458.91087296876907" y1="235.7377197170047" x2="482.0535869048821" y2="292.3628465098442"></line><line stroke="rgba(0, 0, 0, 0.2)" stroke-width="0.533001790889026" x1="586.1190076518225" y1="340.2087444378681" x2="540.3652714460351" y2="285.61559165211276"></line><line stroke="rgba(0, 0, 0, 0.2)" stroke-width="1.5990053726670783" x1="428.8380613510711" y1="291.5723664848918" x2="474.76067471401024" y2="281.735475716121"></line><line stroke="rgba(0, 0, 0, 0.2)" stroke-width="1.066003581778052" x1="428.8380613510711" y1="291.5723664848918" x2="402.54697724617256" y2="269.76417234242086"></line><line stroke="rgba(0, 0, 0, 0.2)" stroke-width="0.533001790889026" x1="428.8380613510711" y1="291.5723664848918" x2="482.0535869048821" y2="292.3628465098442"></line><line stroke="rgba(0, 0, 0, 0.2)" stroke-width="0.533001790889026" x1="479.4555981760626" y1="348.8670155220103" x2="424.35783331533133" y2="326.642288826686"></line><line stroke="rgba(0, 0, 0, 0.2)" stroke-width="0.7537783614444091" x1="479.4555981760626" y1="348.8670155220103" x2="476.6873391933397" y2="417.1475343893489"></line><line stroke="rgba(0, 0, 0, 0.2)" stroke-width="1.3055824196677337" x1="454.8922884890611" y1="360.88947259824363" x2="479.4555981760626" y2="348.8670155220103"></line><line stroke="rgba(0, 0, 0, 0.2)" stroke-width="1.1918282365569906" x1="360.42689885548094" y1="385.831689834843" x2="424.35783331533133" y2="326.642288826686"></line><line stroke="rgba(0, 0, 0, 0.2)" stroke-width="0.7537783614444091" x1="563.5476268331375" y1="213.23262761475144" x2="502.17760795231266" y2="269.9455173443663"></line><line stroke="rgba(0, 0, 0, 0.2)" stroke-width="0.7537783614444091" x1="607.0195171528559" y1="320.43133944853076" x2="524.7026729528783" y2="309.74975384188616"></line><line stroke="rgba(0, 0, 0, 0.2)" stroke-width="0.7537783614444091" x1="607.0195171528559" y1="320.43133944853076" x2="540.3652714460351" y2="285.61559165211276"></line><line stroke="rgba(0, 0, 0, 0.2)" stroke-width="0.533001790889026" x1="607.0195171528559" y1="320.43133944853076" x2="586.1190076518225" y2="340.2087444378681"></line><line stroke="rgba(0, 0, 0, 0.2)" stroke-width="1.5075567228888183" x1="374.84538066806584" y1="265.77263382621385" x2="434.7891962878875" y2="272.10039830983"></line><line stroke="rgba(0, 0, 0, 0.2)" stroke-width="0.9231861823449954" x1="374.84538066806584" y1="265.77263382621385" x2="424.35783331533133" y2="326.642288826686"></line><line stroke="rgba(0, 0, 0, 0.2)" stroke-width="0.7537783614444091" x1="449.4238126263269" y1="279.05208552499886" x2="502.17760795231266" y2="269.9455173443663"></line><line stroke="rgba(0, 0, 0, 0.2)" stroke-width="0.533001790889026" x1="449.4238126263269" y1="279.05208552499886" x2="520.6015881069588" y2="265.7301649712791"></line><line stroke="rgba(0, 0, 0, 0.2)" stroke-width="0.533001790889026" x1="449.4238126263269" y1="279.05208552499886" x2="424.35783331533133" y2="326.642288826686"></line><line stroke="rgba(0, 0, 0, 0.2)" stroke-width="0.7537783614444091" x1="449.4238126263269" y1="279.05208552499886" x2="454.38693601565353" y2="313.0344272118512"></line><line stroke="rgba(0, 0, 0, 0.2)" stroke-width="0.533001790889026" x1="402.54697724617256" y1="269.76417234242086" x2="449.4238126263269" y2="279.05208552499886"></line><line stroke="rgba(0, 0, 0, 0.2)" stroke-width="1.4101901870444156" x1="402.54697724617256" y1="269.76417234242086" x2="474.76067471401024" y2="281.735475716121"></line><line stroke="rgba(0, 0, 0, 0.2)" stroke-width="0.9231861823449954" x1="461.90929271496907" y1="216.62840339127473" x2="483.70843605225406" y2="262.44883848996517"></line><line stroke="rgba(0, 0, 0, 0.2)" stroke-width="0.533001790889026" x1="461.90929271496907" y1="216.62840339127473" x2="502.17760795231266" y2="269.9455173443663"></line><line stroke="rgba(0, 0, 0, 0.2)" stroke-width="0.533001790889026" x1="461.90929271496907" y1="216.62840339127473" x2="509.61387498025346" y2="287.2785997706278"></line><line stroke="rgba(0, 0, 0, 0.2)" stroke-width="0.7537783614444091" x1="461.90929271496907" y1="216.62840339127473" x2="456.116438675018" y2="296.63462270000633"></line><line stroke="rgba(0, 0, 0, 0.2)" stroke-width="0.533001790889026" x1="456.61093939329044" y1="387.8622523381436" x2="424.35783331533133" y2="326.642288826686"></line><line stroke="rgba(0, 0, 0, 0.2)" stroke-width="0.533001790889026" x1="483.484006015139" y1="361.7306132433389" x2="456.61093939329044" y2="387.8622523381436"></line><line stroke="rgba(0, 0, 0, 0.2)" stroke-width="0.7537783614444091" x1="483.484006015139" y1="361.7306132433389" x2="537.9515480210716" y2="390.9444011936378"></line><line stroke="rgba(0, 0, 0, 0.2)" stroke-width="0.9231861823449954" x1="515.7593352155528" y1="236.35254419732618" x2="523.4260188452866" y2="201.48656623499588"></line><line stroke="rgba(0, 0, 0, 0.2)" stroke-width="0.533001790889026" x1="523.4260188452866" y1="201.48656623499588" x2="489.0341233607989" y2="241.76588962678989"></line><line stroke="rgba(0, 0, 0, 0.2)" stroke-width="0.533001790889026" x1="456.57441432006163" y1="248.94762498611217" x2="483.70843605225406" y2="262.44883848996517"></line><line stroke="rgba(0, 0, 0, 0.2)" stroke-width="0.533001790889026" x1="456.57441432006163" y1="248.94762498611217" x2="502.17760795231266" y2="269.9455173443663"></line><line stroke="rgba(0, 0, 0, 0.2)" stroke-width="0.7537783614444091" x1="456.57441432006163" y1="248.94762498611217" x2="456.116438675018" y2="296.63462270000633"></line><line stroke="rgba(0, 0, 0, 0.2)" stroke-width="0.533001790889026" x1="456.57441432006163" y1="248.94762498611217" x2="459.06418581706566" y2="332.4759233503538"></line><line stroke="rgba(0, 0, 0, 0.2)" stroke-width="0.533001790889026" x1="456.57441432006163" y1="248.94762498611217" x2="440.01198005084245" y2="340.53619664586165"></line><line stroke="rgba(0, 0, 0, 0.2)" stroke-width="0.533001790889026" x1="548.7686304153463" y1="315.54235185179635" x2="483.70843605225406" y2="262.44883848996517"></line><line stroke="rgba(0, 0, 0, 0.2)" stroke-width="0.533001790889026" x1="548.7686304153463" y1="315.54235185179635" x2="502.17760795231266" y2="269.9455173443663"></line><line stroke="rgba(0, 0, 0, 0.2)" stroke-width="0.533001790889026" x1="548.7686304153463" y1="315.54235185179635" x2="509.61387498025346" y2="287.2785997706278"></line><line stroke="rgba(0, 0, 0, 0.2)" stroke-width="0.533001790889026" x1="548.7686304153463" y1="315.54235185179635" x2="546.8910843470328" y2="264.36726908419985"></line><line stroke="rgba(0, 0, 0, 0.2)" stroke-width="0.533001790889026" x1="548.7686304153463" y1="315.54235185179635" x2="474.76067471401024" y2="281.735475716121"></line><line stroke="rgba(0, 0, 0, 0.2)" stroke-width="1.066003581778052" x1="405.99312013202723" y1="364.98334974242005" x2="459.06418581706566" y2="332.4759233503538"></line><line stroke="rgba(0, 0, 0, 0.2)" stroke-width="0.7537783614444091" x1="405.99312013202723" y1="364.98334974242005" x2="424.35783331533133" y2="326.642288826686"></line><line stroke="rgba(0, 0, 0, 0.2)" stroke-width="1.1918282365569906" x1="565.7592831823565" y1="273.10054656067905" x2="520.6015881069588" y2="265.7301649712791"></line><line stroke="rgba(0, 0, 0, 0.2)" stroke-width="1.1918282365569906" x1="384.29451160298396" y1="316.73682890691464" x2="440.01198005084245" y2="340.53619664586165"></line><line stroke="rgba(0, 0, 0, 0.2)" stroke-width="0.533001790889026" x1="384.29451160298396" y1="316.73682890691464" x2="474.76067471401024" y2="281.735475716121"></line><line stroke="rgba(0, 0, 0, 0.2)" stroke-width="0.9231861823449954" x1="384.29451160298396" y1="316.73682890691464" x2="428.8380613510711" y2="291.5723664848918"></line><line stroke="rgba(0, 0, 0, 0.2)" stroke-width="0.533001790889026" x1="420.5213557340129" y1="253.69763446268973" x2="474.76067471401024" y2="281.735475716121"></line><line stroke="rgba(0, 0, 0, 0.2)" stroke-width="0.533001790889026" x1="420.5213557340129" y1="253.69763446268973" x2="503.3156751916549" y2="247.90204974027736"></line><line stroke="rgba(0, 0, 0, 0.2)" stroke-width="0.533001790889026" x1="364.4943616066968" y1="366.26716688030353" x2="420.5213557340129" y2="253.69763446268973"></line><line stroke="rgba(0, 0, 0, 0.2)" stroke-width="1.066003581778052" x1="364.4943616066968" y1="366.26716688030353" x2="421.66131107279995" y2="354.943846666377"></line><line stroke="rgba(0, 0, 0, 0.2)" stroke-width="1.1918282365569906" x1="364.4943616066968" y1="366.26716688030353" x2="349.63062646723796" y2="347.63209459502343"></line><line stroke="rgba(0, 0, 0, 0.2)" stroke-width="0.7537783614444091" x1="349.63062646723796" y1="347.63209459502343" x2="421.66131107279995" y2="354.943846666377"></line><line stroke="rgba(0, 0, 0, 0.2)" stroke-width="0.533001790889026" x1="349.63062646723796" y1="347.63209459502343" x2="424.35783331533133" y2="326.642288826686"></line><line stroke="rgba(0, 0, 0, 0.2)" stroke-width="0.533001790889026" x1="349.63062646723796" y1="347.63209459502343" x2="420.46151460744295" y2="297.879055331254"></line><line stroke="rgba(0, 0, 0, 0.2)" stroke-width="0.9231861823449954" x1="516.1435627537251" y1="394.2413198817304" x2="483.484006015139" y2="361.7306132433389"></line></g><g class="nodes"><g class="node" transform="translate(483.70843605225406,262.44883848996517)"><circle r="2" fill="#1f77b4"></circle><text font-size="4" fill="#aa33ee">星宮 いちご</text></g><g class="node" transform="translate(502.17760795231266,269.9455173443663)"><circle r="2" fill="#1f77b4"></circle><text font-size="4" fill="#aa33ee">霧矢 あおい</text></g><g class="node" transform="translate(520.6015881069588,265.7301649712791)"><circle r="2" fill="#1f77b4"></circle><text font-size="4" fill="#aa33ee">紫吹 蘭</text></g><g class="node" transform="translate(499.5689153441215,299.7472148761679)"><circle r="2" fill="#1f77b4"></circle><text font-size="4" fill="#aa33ee">有栖川 おとめ</text></g><g class="node" transform="translate(509.61387498025346,287.2785997706278)"><circle r="2" fill="#1f77b4"></circle><text font-size="4" fill="#aa33ee">藤堂 ユリカ</text></g><g class="node" transform="translate(524.7026729528783,309.74975384188616)"><circle r="2" fill="#1f77b4"></circle><text font-size="4" fill="#aa33ee">北大路 さくら</text></g><g class="node" transform="translate(542.3795750768176,304.4035324759205)"><circle r="2" fill="#1f77b4"></circle><text font-size="4" fill="#aa33ee">一ノ瀬 かえで</text></g><g class="node" transform="translate(528.1202929095731,283.7559304503964)"><circle r="2" fill="#1f77b4"></circle><text font-size="4" fill="#aa33ee">神谷 しおん</text></g><g class="node" transform="translate(534.9646599843397,247.98210077203726)"><circle r="2" fill="#1f77b4"></circle><text font-size="4" fill="#aa33ee">三ノ輪 ヒカリ</text></g><g class="node" transform="translate(456.116438675018,296.63462270000633)"><circle r="2" fill="#aec7e8"></circle><text font-size="4" fill="#aa33ee">大空 あかり</text></g><g class="node" transform="translate(511.34857436379104,312.24370605564053)"><circle r="2" fill="#aec7e8"></circle><text font-size="4" fill="#aa33ee">服部 ユウ</text></g><g class="node" transform="translate(459.06418581706566,332.4759233503538)"><circle r="2" fill="#ff7f0e"></circle><text font-size="4" fill="#aa33ee">氷上 スミレ</text></g><g class="node" transform="translate(440.01198005084245,340.53619664586165)"><circle r="2" fill="#ff7f0e"></circle><text font-size="4" fill="#aa33ee">新条 ひなき</text></g><g class="node" transform="translate(421.66131107279995,354.943846666377)"><circle r="2" fill="#ff7f0e"></circle><text font-size="4" fill="#aa33ee">紅林 珠璃</text></g><g class="node" transform="translate(424.35783331533133,326.642288826686)"><circle r="2" fill="#ff7f0e"></circle><text font-size="4" fill="#aa33ee">黒沢 凛</text></g><g class="node" transform="translate(420.46151460744295,297.879055331254)"><circle r="2" fill="#ff7f0e"></circle><text font-size="4" fill="#aa33ee">天羽 まどか</text></g><g class="node" transform="translate(507.92204038382755,348.16675173306174)"><circle r="2" fill="#ffbb78"></circle><text font-size="4" fill="#aa33ee">大地 のの</text></g><g class="node" transform="translate(483.484006015139,361.7306132433389)"><circle r="2" fill="#ffbb78"></circle><text font-size="4" fill="#aa33ee">白樺 リサ</text></g><g class="node" transform="translate(515.7593352155528,236.35254419732618)"><circle r="2" fill="#2ca02c"></circle><text font-size="4" fill="#aa33ee">音城 セイラ</text></g><g class="node" transform="translate(546.8910843470328,264.36726908419985)"><circle r="2" fill="#2ca02c"></circle><text font-size="4" fill="#aa33ee">冴草 きい</text></g><g class="node" transform="translate(489.0341233607989,241.76588962678989)"><circle r="2" fill="#2ca02c"></circle><text font-size="4" fill="#aa33ee">風沢 そら</text></g><g class="node" transform="translate(540.3652714460351,285.61559165211276)"><circle r="2" fill="#2ca02c"></circle><text font-size="4" fill="#aa33ee">姫里 マリア</text></g><g class="node" transform="translate(474.76067471401024,281.735475716121)"><circle r="2" fill="#98df8a"></circle><text font-size="4" fill="#aa33ee">神崎 美月</text></g><g class="node" transform="translate(428.8380613510711,291.5723664848918)"><circle r="2" fill="#98df8a"></circle><text font-size="4" fill="#aa33ee">夏樹 みくる</text></g><g class="node" transform="translate(479.4555981760626,348.8670155220103)"><circle r="2" fill="#98df8a"></circle><text font-size="4" fill="#aa33ee">藤原 みやび</text></g><g class="node" transform="translate(454.8922884890611,360.88947259824363)"><circle r="2" fill="#98df8a"></circle><text font-size="4" fill="#aa33ee">栗栖 ここね</text></g><g class="node" transform="translate(617.8557030361258,284.89897316310925)"><circle r="2" fill="#98df8a"></circle><text font-size="4" fill="#aa33ee">花輪 やよい</text></g><g class="node" transform="translate(360.42689885548094,385.831689834843)"><circle r="2" fill="#98df8a"></circle><text font-size="4" fill="#aa33ee">波照間 みなみ</text></g><g class="node" transform="translate(563.5476268331375,213.23262761475144)"><circle r="2" fill="#d62728"></circle><text font-size="4" fill="#aa33ee">荒灘 はづき</text></g><g class="node" transform="translate(607.0195171528559,320.43133944853076)"><circle r="2" fill="#d62728"></circle><text font-size="4" fill="#aa33ee">モニカ・キキィ</text></g><g class="node" transform="translate(482.16892449658695,310.92420206656806)"><circle r="2" fill="#ff9896"></circle><text font-size="4" fill="#aa33ee">光石 織姫 / ヒメ</text></g><g class="node" transform="translate(434.7891962878875,272.10039830983)"><circle r="2" fill="#ff9896"></circle><text font-size="4" fill="#aa33ee">ジョニー別府</text></g><g class="node" transform="translate(449.4238126263269,279.05208552499886)"><circle r="2" fill="#ff9896"></circle><text font-size="4" fill="#aa33ee">涼川 直人</text></g><g class="node" transform="translate(461.90929271496907,216.62840339127473)"><circle r="2" fill="#9467bd"></circle><text font-size="4" fill="#aa33ee">中山 ユナ</text></g><g class="node" transform="translate(456.61093939329044,387.8622523381436)"><circle r="2" fill="#c5b0d5"></circle><text font-size="4" fill="#aa33ee">長浜 美鶴</text></g><g class="node" transform="translate(458.91087296876907,235.7377197170047)"><circle r="2" fill="#8c564b"></circle><text font-size="4" fill="#aa33ee">夢咲 ティアラ</text></g><g class="node" transform="translate(523.4260188452866,201.48656623499588)"><circle r="2" fill="#c49c94"></circle><text font-size="4" fill="#aa33ee">音城 ノエル</text></g><g class="node" transform="translate(476.6873391933397,417.1475343893489)"><circle r="2" fill="#e377c2"></circle><text font-size="4" fill="#aa33ee">長岡先生</text></g><g class="node" transform="translate(402.54697724617256,269.76417234242086)"><circle r="2" fill="#f7b6d2"></circle><text font-size="4" fill="#aa33ee">月影 ほのか</text></g><g class="node" transform="translate(456.57441432006163,248.94762498611217)"><circle r="2" fill="#f7b6d2"></circle><text font-size="4" fill="#aa33ee">まぐろさん</text></g><g class="node" transform="translate(548.7686304153463,315.54235185179635)"><circle r="2" fill="#f7b6d2"></circle><text font-size="4" fill="#aa33ee">Mr.S</text></g><g class="node" transform="translate(405.99312013202723,364.98334974242005)"><circle r="2" fill="#f7b6d2"></circle><text font-size="4" fill="#aa33ee">水谷 郁子</text></g><g class="node" transform="translate(454.38693601565353,313.0344272118512)"><circle r="2" fill="#f7b6d2"></circle><text font-size="4" fill="#aa33ee">花音</text></g><g class="node" transform="translate(446.2236890462531,249.69919545146064)"><circle r="2" fill="#7f7f7f"></circle><text font-size="4" fill="#aa33ee">天羽 あすか</text></g><g class="node" transform="translate(503.3156751916549,247.90204974027736)"><circle r="2" fill="#7f7f7f"></circle><text font-size="4" fill="#aa33ee">神代 レイ</text></g><g class="node" transform="translate(565.7592831823565,273.10054656067905)"><circle r="2" fill="#7f7f7f"></circle><text font-size="4" fill="#aa33ee">橘 杏奈</text></g><g class="node" transform="translate(469.2467995764721,269.21215783590765)"><circle r="2" fill="#7f7f7f"></circle><text font-size="4" fill="#aa33ee">虹ヶ原 マコト</text></g><g class="node" transform="translate(495.3049210140603,321.77312303090815)"><circle r="2" fill="#7f7f7f"></circle><text font-size="4" fill="#aa33ee">グリーン・グラス / 柊 リサ、柊 エレナ</text></g><g class="node" transform="translate(384.29451160298396,316.73682890691464)"><circle r="2" fill="#7f7f7f"></circle><text font-size="4" fill="#aa33ee">KAYOKO</text></g><g class="node" transform="translate(420.5213557340129,253.69763446268973)"><circle r="2" fill="#7f7f7f"></circle><text font-size="4" fill="#aa33ee">瀬名 翼</text></g><g class="node" transform="translate(364.4943616066968,366.26716688030353)"><circle r="2" fill="#7f7f7f"></circle><text font-size="4" fill="#aa33ee">エンシエロ 篤</text></g><g class="node" transform="translate(349.63062646723796,347.63209459502343)"><circle r="2" fill="#7f7f7f"></circle><text font-size="4" fill="#aa33ee">ムレータ淳朗</text></g><g class="node" transform="translate(374.84538066806584,265.77263382621385)"><circle r="2" fill="#7f7f7f"></circle><text font-size="4" fill="#aa33ee">サニー</text></g><g class="node" transform="translate(516.1435627537251,394.2413198817304)"><circle r="2" fill="#7f7f7f"></circle><text font-size="4" fill="#aa33ee">如月 ルーシー</text></g><g class="node" transform="translate(482.0535869048821,292.3628465098442)"><circle r="2" fill="#c7c7c7"></circle><text font-size="4" fill="#aa33ee">星宮 りんご / ミヤ</text></g><g class="node" transform="translate(482.82652460090395,219.3841927402879)"><circle r="2" fill="#c7c7c7"></circle><text font-size="4" fill="#aa33ee">星宮 らいち</text></g><g class="node" transform="translate(586.1190076518225,340.2087444378681)"><circle r="2" fill="#c7c7c7"></circle><text font-size="4" fill="#aa33ee">北大路 左近</text></g><g class="node" transform="translate(537.9515480210716,390.9444011936378)"><circle r="2" fill="#c7c7c7"></circle><text font-size="4" fill="#aa33ee">白樺 静生</text></g></g></g></svg>